<svg xmlns="http://www.w3.org/2000/svg" viewBox="0 0 180.83 47.22"><defs><style>.cls-1{fill:#fff;}.cls-2{fill:#121e39;}</style></defs><g id="Layer_2" data-name="Layer 2"><g id="Layer_1-2" data-name="Layer 1"><rect class="cls-1" width="180.83" height="47.22"/><path class="cls-2" d="M15.25,12c-.56-.43-2-1.75-6.17-1.75H2.41c-1.74,0-2.41-.09-2.41.27s.72.12,1.19.48a1.82,1.82,0,0,1,.48.62A9.81,9.81,0,0,1,2,14.21c.05.92.1,2.34.1,4.95v5.42c0,1.91,0,4.39,0,5.71,0,.12,0,.27,0,.45H2c0,.31,0,.68-.09,1.05a.49.49,0,0,1,0,.12,4.17,4.17,0,0,1-.25,1,1.68,1.68,0,0,1-.45.57C.77,33.9.05,33.72.05,34s.66.27,2.41.27H6.19v-22c0-.34.1-.52.26-.58a5.16,5.16,0,0,1,1.3-.13,5.18,5.18,0,0,1,3.32,1.21,5.62,5.62,0,0,1,2,4.62,5.73,5.73,0,0,1-1.4,3.85,3.77,3.77,0,0,1-2.92,1.31c-.27,0-.64.06-.62.28s.41.27,1.4.21a7.86,7.86,0,0,0,2.06-.38c2.86-.9,5.8-3.15,5.6-7A4.78,4.78,0,0,0,15.25,12Z"/><path class="cls-2" d="M37.55,10.19c-1.5,0-2.08-.06-2.08.27s.72.12,1.19.49a1.59,1.59,0,0,1,.36.41,3.37,3.37,0,0,1,.29.94,13.14,13.14,0,0,1,.17,2.13h0V26.31c-1.53-1.42-13.66-13.1-16.84-16a.53.53,0,0,0-.43-.13c-.22,0-.28.27-.3.42V34.26H22.7c1.75,0,2.41.09,2.41-.27s-.72-.12-1.19-.49a1.28,1.28,0,0,1-.28-.29l0-.05h0A8.56,8.56,0,0,1,23.11,30h0V18.13s13.81,13,17,16.05a.52.52,0,0,0,.39.07c.23-.08.25-.34.25-.48h0V10.19Z"/><path class="cls-2" d="M49.66,10.2H45.92V28c0,5.28.12,8.53-1.49,10.8l-.16.22h0a4.91,4.91,0,0,1-2.43,1.71c-.2.06-.6.16-.55.4s.45.18,1.42-.06a8.77,8.77,0,0,0,1.59-.58l.24-.11a8.8,8.8,0,0,0,4.81-5.5A21.6,21.6,0,0,0,50,29.53c.08-1.56,0-3.36,0-4.68V19.14c0-2.75,0-4,0-4.69,0,0,0-1.31,0-1.36a5.77,5.77,0,0,1,.22-1.37,1.8,1.8,0,0,1,.54-.76c.47-.37,1.19-.18,1.19-.49S51.4,10.2,49.66,10.2Z"/><rect class="cls-2" x="150.28" y="16.35" width="2.41" height="0.94" rx="0.3" transform="translate(21.52 96.45) rotate(-37.83)"/><rect class="cls-2" x="138.62" y="14.06" width="0.94" height="2.41" rx="0.3" transform="translate(19.86 88.5) rotate(-37.82)"/><rect class="cls-2" x="136.33" y="27.19" width="2.41" height="0.94" rx="0.3" transform="translate(11.96 90.22) rotate(-37.85)"/><rect class="cls-2" x="149.46" y="28.01" width="0.94" height="2.41" rx="0.3" transform="matrix(0.79, -0.61, 0.61, 0.79, 13.67, 98.25)"/><polygon class="cls-2" points="93.24 9.89 90.63 9.89 83.32 30.27 76.57 10.05 76.5 9.82 74.62 9.82 67.8 30.27 60.56 10.11 60.48 9.89 57.74 9.89 66.66 34.24 66.74 34.46 68.68 34.46 75.49 14.59 82.22 34.23 82.3 34.46 84.24 34.46 93.06 10.36 93.24 9.89"/><path class="cls-2" d="M104.32,9.72h-2.16L90.84,33.79l-.23.5h2.62l3.07-6.64h13.77l3,6.44.09.2h2.73L104.41,9.91ZM109,25.36H97.38l5.82-12.54Z"/><polygon class="cls-2" points="112.32 12.21 120.72 12.21 120.72 34.29 123.21 34.29 123.21 12.21 131.61 12.21 131.61 9.89 112.32 9.89 112.32 12.21"/><polygon class="cls-2" points="178.35 9.89 178.35 20.86 163.62 20.86 163.62 9.89 161.13 9.89 161.13 34.29 163.62 34.29 163.62 23.18 178.35 23.18 178.35 34.29 180.83 34.29 180.83 9.89 178.35 9.89"/><path class="cls-2" d="M154.49,18.39l.15.39,1.62-1,.24-.16-.11-.26a12.87,12.87,0,1,0-22.06,12.8A12.8,12.8,0,0,0,142.91,35a12.58,12.58,0,0,0,1.62.1,12.72,12.72,0,0,0,11.78-7.82l.11-.26-1.83-1.19-.16.39a10.46,10.46,0,0,1-3.32,4.47A10.75,10.75,0,1,1,153,15.65,10.4,10.4,0,0,1,154.49,18.39Z"/><polygon class="cls-2" points="154.18 12.36 156.63 15.52 158.76 13.87 156.31 10.7 154.18 12.36"/><polygon class="cls-2" points="144.94 21.49 140.44 16.74 140.24 16.9 143.94 22.37 143.52 23.47 144.75 23.29 145.89 23.73 145.72 22.55 149.32 18.81 144.94 21.49"/></g></g></svg>