<svg xmlns="http://www.w3.org/2000/svg" viewBox="0 0 104.01 47.22"><defs><style>.cls-1{fill:#fff;}</style></defs><g id="Layer_2" data-name="Layer 2"><g id="Layer_1-2" data-name="Layer 1"><rect class="cls-1" width="104.01" height="47.22"/><polygon points="37 8.29 29.88 8.29 26.27 8.29 19.14 8.29 19.14 10.09 26.27 10.09 26.27 33.28 29.88 33.28 29.88 10.09 37 10.09 37 8.29"/><path d="M47.39,17.64v.05l.33.48s.05-.09.07-.14a5.06,5.06,0,0,1,.92-1.14,2.26,2.26,0,0,1,2-.34,1.25,1.25,0,0,0,.19,0l-.42-.63a4.38,4.38,0,0,0-2.47.6,8.43,8.43,0,0,0-.93.71l.3.44h0"/><path d="M49.86,15a5.09,5.09,0,0,0-2.73.86c-.22.15-.44.31-.65.48l.27.39a5.12,5.12,0,0,1,3.37-1.34c-.09-.13-.18-.26-.26-.39"/><path d="M55.2,16.64a7.6,7.6,0,0,1,.54.81c.13.23.3.55.41.79l.29-.45a11.26,11.26,0,0,0-1-1.5Z"/><path d="M45.9,15.48l.26.4a6.21,6.21,0,0,1,2.56-1.22,7.64,7.64,0,0,1,.82-.1c-.1-.14-.19-.28-.28-.42a8.42,8.42,0,0,0-2.7.93c-.24.13-.45.27-.66.41"/><path d="M54.6,17.55a6.48,6.48,0,0,1,.65,1.32c0,.14.13.35.17.49l.42-.63a7.92,7.92,0,0,0-1-1.64Z"/><path d="M56,15.44l-.28.44a5.37,5.37,0,0,1,.84,1.06c.05.09.15.29.2.37l.33-.5a10.62,10.62,0,0,0-.66-.88c-.14-.18-.28-.32-.43-.49"/><path d="M53.91,26.75v-.89a6.82,6.82,0,0,1-2.11.59,1.57,1.57,0,0,1-1.43-.58v.82a5.77,5.77,0,0,0,.76.35,3.57,3.57,0,0,0,2.78-.29"/><path d="M45.3,14.6l.29.44a8.18,8.18,0,0,1,1.69-.88A8.7,8.7,0,0,1,49,13.74l-.33-.5a7.82,7.82,0,0,0-3.11,1.21l-.23.15"/><path d="M44.55,13.49l.46.68.48-.31a8.12,8.12,0,0,1,2.83-1.07l-.26-.4a11.21,11.21,0,0,0-1.76.48l-1.75.62"/><path d="M50.86,24.91c-.07,0-.3.13-.3.2,0,.33.62.8,1.13.8a.91.91,0,0,0,.33-.24c0-.07-.11-.29-.22-.35a5.58,5.58,0,0,0-.94-.41"/><path d="M59.06,10.78l.33.23c.27.22.69.59.94.82l.26-.4a16,16,0,0,0-1.23-1.09Z"/><path d="M53.56,25.39a2.89,2.89,0,0,0,.35-.11v-.46a1.92,1.92,0,0,1-1.09.16l-.07-.12a5.09,5.09,0,0,1,.5-.3l.66-.27v-.38c-.27.11-.55.23-.84.32a2.11,2.11,0,0,1-2.41-.69c-.1-.13-.2-.25-.29-.38v1.06a2.22,2.22,0,0,0,.53.28c.56.21,1.07.54,1.62.74a2,2,0,0,0,1,.15"/><path d="M52.85,21.7A2.39,2.39,0,0,1,52,20.11a2.39,2.39,0,0,0-.23-.73c0-.09-.23-.2-.3-.17s-.17.18-.22.24A4,4,0,0,0,52,21.4a5.12,5.12,0,0,0,.76.71s.17,0,.26,0a.93.93,0,0,0,0-.24.69.69,0,0,0-.17-.17"/><path d="M57.94,15.5l.26-.4a1,1,0,0,1-.08-.14,6.16,6.16,0,0,0-.95-1.22l-.05-.05-.29.45a12,12,0,0,1,1.11,1.36"/><path d="M49.59,17.41c.22-.1.42-.22.63-.33V17a1.69,1.69,0,0,0-.5,0,1.9,1.9,0,0,0-1.2.92c-.14.28-.27.57-.4.86l.36.52a3.38,3.38,0,0,1,.17-.75,1.79,1.79,0,0,1,1-1.12"/><path d="M54,18.53a5.22,5.22,0,0,1,.63,1.93.78.78,0,0,1,0,.14l.47-.71a7.2,7.2,0,0,0-.83-1.81Z"/><path d="M50.11,18.47a1.44,1.44,0,0,1,.88-.7,3.18,3.18,0,0,1,.69-.09l-.31-.46a2.35,2.35,0,0,0-1.93,1,3,3,0,0,0-.54,1.74l.69,1a3.34,3.34,0,0,1,.52-2.47"/><path d="M51.55,23.62a1.63,1.63,0,0,0,1.75.15l.61-.26V23.1a1.48,1.48,0,0,1-1.51.28,2.75,2.75,0,0,1-2-2.46c0-.21,0-.41,0-.62l.11,0a2.2,2.2,0,0,1,.23.46,3.69,3.69,0,0,0,1,1.73,1.29,1.29,0,0,0,2.14-.13v-.65l.29-.44A3.48,3.48,0,0,0,53.64,19l-.28.44a3.51,3.51,0,0,1,.45,2.1,1.75,1.75,0,0,1-.38.87c-.31.33-.87.23-1.27-.19a4.8,4.8,0,0,1-1.33-2.71.7.7,0,0,1,.41-.78.69.69,0,0,1,.89.45c.21.5.35,1,.55,1.53.1.24.26.46.42.75a1.17,1.17,0,0,0,.3-1,6.22,6.22,0,0,0-.38-.83c-.19-.29-.53-.8-1-1.43a1.7,1.7,0,0,1-.31.06,1.17,1.17,0,0,0-1.36.67,3.73,3.73,0,0,0,0,3.12l0,0v0a3.46,3.46,0,0,0,1.18,1.5"/><path d="M53.91,28V27.3a5.09,5.09,0,0,1-1.06.36,3.64,3.64,0,0,1-2.48-.32v.52a5.36,5.36,0,0,0,1.26.36A4.34,4.34,0,0,0,53.91,28"/><path d="M60.1,9.21l-.42.64c.38.32.85.76,1.21,1.11l.4-.6A8.09,8.09,0,0,0,60.1,9.21"/><path d="M46.15,10.38l0-.14a2.24,2.24,0,0,0-.51,0,9.91,9.91,0,0,0-2.63,1l.18.26a11.32,11.32,0,0,1,2.49-.89,4.09,4.09,0,0,0,.49-.18"/><path d="M59.74,12.74l.31-.48a13.62,13.62,0,0,0-1.3-1.06l-.35.54a4.27,4.27,0,0,1,1.34,1"/><path d="M41.76,9.45a2.45,2.45,0,0,1,.37.46l0,.06A15.09,15.09,0,0,1,45.37,9a3.92,3.92,0,0,0-.94-.5,14.89,14.89,0,0,0-1.56.4,3.87,3.87,0,0,0-1.11.51"/><path d="M60.55,8.53c.3.44.79.85,1.08,1.29l1-1.58-1.92,0Z"/><path d="M41.31,9.06A4.3,4.3,0,0,1,42,8.65a7.74,7.74,0,0,1,1-.36H39.68v.24a2.59,2.59,0,0,1,1.63.53"/><path d="M52.42,31c-.69-.1-1.37-.25-2.05-.41v.48a12.73,12.73,0,0,0,3.54.31h0V31A6.78,6.78,0,0,1,52.42,31"/><path d="M53.8,31.83h0"/><path d="M58.51,12.33l-.34-.24-.2.32c.09.07.17.11.26.17a3.91,3.91,0,0,1,1,1l.27-.4a7,7,0,0,0-1-.84"/><path d="M42.5,10.46l.29.43A10.6,10.6,0,0,1,45.9,9.78l.34,0A3.22,3.22,0,0,0,46,9.39c-.37.06-.86.22-1.22.3a22.62,22.62,0,0,0-2.28.77"/><path d="M52.12,29.29A11.87,11.87,0,0,0,53.91,29v-.5a5,5,0,0,1-3.54-.2v.75a4.48,4.48,0,0,0,1.75.2"/><path d="M44.27,13.07l.14-.05a20.26,20.26,0,0,1,3.33-1.09c-.09-.13-.17-.26-.26-.38a12.7,12.7,0,0,0-3.56,1Z"/><path d="M56.29,15a7.35,7.35,0,0,1,1.09,1.39l.28-.45c-.34-.43-.74-.94-1.11-1.34Z"/><path d="M53.91,30.62v-.4l-.77.07a1.89,1.89,0,0,1-.39-.07v-.14c.33,0,.66-.1,1-.13l.18,0v-.37l-.25.05a13.11,13.11,0,0,1-2.33.21c-.33,0-.65,0-1-.08v.38c.72.17,1.45.34,2.18.47a5.65,5.65,0,0,0,1.36,0"/><path d="M43.39,11.78l.25.37a14.74,14.74,0,0,1,3.57-1l-.26-.4c-.59.11-1.23.27-1.81.39a7.92,7.92,0,0,0-1.75.63"/><path d="M57.69,12.84l-.29.44a3.9,3.9,0,0,1,1,1.15l.09.19.39-.6a4.29,4.29,0,0,0-1.22-1.18"/><path d="M50.37,32.35v.92H54c-.55,0-2.5-.66-3.06-.8-.17,0-.35-.08-.53-.12"/><path d="M52.45,31.92c-.68-.1-1.36-.25-2-.42V32a12.86,12.86,0,0,0,3.5.65l0-.34V32a7.58,7.58,0,0,1-1.5,0"/><path d="M71.63,31.47V8.24h-6.3a1,1,0,0,0,0,.23c2.31,0,2.61,1.14,2.64,1.4V33.27h3.67l11.59,0v-1.8Z"/><path d="M104,10.1V8.28H88.63l0,0,0,0H85.9v.2c2.36,0,2.66,1.16,2.69,1.43V33.3H104V31.43H92.16V21.36h8.94V19.47H92.16V10.1Z"/><path d="M82.7,42.61v0c-.25-.76-1.81-1.27-4.65-1.5l.23-.42a8.1,8.1,0,0,0,.5-1.12c.36-.11.76-.22,1.21-.33,2.17-.55,3.51-1.15,3.58-1.6a.4.4,0,0,0-.1-.31c-.16-.18-.6-.42-2.55-.44h0c-.59,0-1.14.06-1.65.11h-.11v0a12.46,12.46,0,0,0-5.31,1.58l0,0c-.46.24-.15.52.14.47a.49.49,0,0,0,.41-.35c0-.1.28-.22.28-.22a1.57,1.57,0,0,0,.26-.13,14.28,14.28,0,0,1,4.2-1.06,17.37,17.37,0,0,1-.55,2c-1.74.53-2.63,1-2.72,1.33a.37.37,0,0,0,0,.33c.12.18.44.29,1.71.39a4.81,4.81,0,0,0-.71,2.24l.31-.07a5.08,5.08,0,0,1,.74-2.14c2.64.21,4.28.67,4.49,1.29,0,.26-.43.77-1.31,1a16.06,16.06,0,0,1-6.43.55l0,.3a14.4,14.4,0,0,0,1.92.13A16.8,16.8,0,0,0,81.16,44c1-.27,1.64-.87,1.54-1.38m-3.29-5.33c.47-.05,1-.09,1.51-.11,1.83,0,2.22.25,2.31.34a.1.1,0,0,1,0,.07s-.26.56-3.35,1.34l-1,.27a15.33,15.33,0,0,0,.5-1.91m-1.7,3.79c-1.22-.1-1.55-.2-1.6-.28s0,0,0-.06a5.46,5.46,0,0,1,2.27-1.06,6.64,6.64,0,0,1-.39.85c-.1.18-.2.36-.29.55"/><path d="M87.33,41.32a4.57,4.57,0,0,0-1.89.72,4.11,4.11,0,0,0,.08-1.38.19.19,0,0,0-.16-.1c-.15,0-.27.14-.53.47a3.34,3.34,0,0,1-.9.9c-.11,0-.17,0-.18,0s0-.53.18-.94l-.28-.12c-.1.23-.4,1-.12,1.28a.47.47,0,0,0,.52,0h0a3.39,3.39,0,0,0,1-1c.06-.07.12-.16.18-.22a11.53,11.53,0,0,1-.15,1.26A15,15,0,0,0,82.9,44a3.1,3.1,0,0,0-1,2.82.52.52,0,0,0,.47.4h.06c.84,0,1.73-1.19,2.24-2.23a11.33,11.33,0,0,0,.72-2.53v0a7.18,7.18,0,0,1,2.05-.91c.44-.07.62-.31-.1-.21m-3,3.53c-.61,1.25-1.44,2.14-2,2.1,0,0-.14,0-.2-.2a2.89,2.89,0,0,1,.94-2.54A15.52,15.52,0,0,1,85,42.67a9.21,9.21,0,0,1-.65,2.18"/><path d="M103.31,36.85h-1.06v5.22c0,1.54,0,2.5-.42,3.17l0,.06h0a1.41,1.41,0,0,1-.68.51c-.06,0-.17,0-.16.11s.13.06.4,0a2.51,2.51,0,0,0,.45-.17l.07,0a2.55,2.55,0,0,0,1.36-1.61,6.2,6.2,0,0,0,.19-1.57c0-.46,0-1,0-1.38V39.47c0-.8,0-1.16,0-1.38,0,0,0-.38,0-.39a1.76,1.76,0,0,1,.06-.41.54.54,0,0,1,.15-.22c.13-.11.34,0,.34-.14s-.19-.08-.69-.08m-9.75.53a2.42,2.42,0,0,0-1.75-.51H89.92c-.5,0-.69,0-.69.08s.21,0,.34.14a.46.46,0,0,1,.13.18,2.9,2.9,0,0,1,.1.77c0,.27,0,.69,0,1.45v1.59c0,.56,0,1.29,0,1.68v.13h0c0,.09,0,.2,0,.31v0a1.44,1.44,0,0,1-.07.31.52.52,0,0,1-.13.17c-.13.11-.34,0-.34.14s.19.08.69.08h1V37.47c0-.1,0-.16.07-.18a1.9,1.9,0,0,1,.37,0,1.41,1.41,0,0,1,.94.35A1.66,1.66,0,0,1,92.93,39a1.69,1.69,0,0,1-.4,1.13,1,1,0,0,1-.82.39c-.08,0-.19,0-.18.08s.12.08.4.06a1.79,1.79,0,0,0,.58-.11,2.08,2.08,0,0,0,1.59-2,1.41,1.41,0,0,0-.54-1.08m6.32-.53c-.42,0-.59,0-.59.08s.21,0,.34.14l.1.12a.93.93,0,0,1,.08.28,3.06,3.06,0,0,1,0,.62h0v3.49c-.44-.42-3.88-3.84-4.79-4.7a.17.17,0,0,0-.12,0,.11.11,0,0,0-.08.12v7h.79c.49,0,.68,0,.68-.09s-.2,0-.34-.14a.6.6,0,0,1-.08-.08v0h0a2.75,2.75,0,0,1-.14-.92h0V39.18s3.92,3.81,4.82,4.71a.22.22,0,0,0,.11,0c.07,0,.07-.1.08-.14l0-6.92Z"/><path d="M16.47,26.87c0,2.59-1.91,6.88-7.81,6.88C4,33.75,1,31.74.27,26.63H1.4C2.15,31.3,6,32.32,8.28,32.32a4.66,4.66,0,0,0,5-4.39c0-2.63-2-3.91-6.05-6C4.66,20.57,0,18.62,0,14.35,0,8.93,5.35,7.84,7.26,7.84,12,7.84,14,10.37,14.69,14H13.47A5.89,5.89,0,0,0,7.3,9.24c-2.12,0-4.37,1.71-4.37,3.85,0,2.53,3,4.13,6.17,5.73,5.93,3,7.37,5.08,7.37,8.05"/></g></g></svg>